<svg xmlns="http://www.w3.org/2000/svg" viewBox="0 0 700 700"><defs><linearGradient id="coat" x1="0" x2="0.8" y2="1"><stop stop-color="#c7b9dc"/><stop offset="1" stop-color="#9285b6"/></linearGradient><radialGradient id="fur"><stop stop-color="#fff2d9"/><stop offset="1" stop-color="#e8cb9d"/></radialGradient></defs><rect id="stage" width="700" height="700" rx="36" fill="#f3f0e9"/><circle cx="350" cy="350" r="242" fill="#e7e4dd"/><text x="42" y="57" font-family="system-ui" font-size="15" letter-spacing="3" fill="#777a82">MAI SVG / CHARACTER LAB</text><text x="42" y="99" font-family="system-ui" font-size="29" font-weight="600" fill="#343844">Un personaje. Seis emociones.</text><path d="M42 119H658" stroke="#d6d3ce"/><ellipse id="shadow" cx="350" cy="574" rx="112" ry="18" fill="#cecbc4"/>
<g id="character" data-mai-name="Milo · personaje editable">
<path id="tail" data-mai-name="Cola con rig" d="M421 482 C527 498 529 411 508 381 C499 365 515 357 525 372 C581 452 534 553 421 520 Z" fill="#d4a16f"/>
<g id="body" data-mai-name="Torso y patas"><path id="leg-left" d="M283 486C279 525 274 551 283 563C297 572 318 568 324 558L324 484Z" fill="#dfba87"/><path id="leg-right" d="M377 486V556C383 569 405 572 419 563C428 549 423 525 418 485Z" fill="#dfba87"/><path id="jacket" d="M275 388C254 416 251 472 270 511C309 539 396 539 433 511C451 468 446 419 422 388Z" fill="url(#coat)"/><path d="M350 404V520" stroke="#87789e" stroke-width="2"/><circle cx="350" cy="449" r="4" fill="#f2dbab"/><circle cx="350" cy="477" r="4" fill="#f2dbab"/><path d="M293 468H327V490H300Z" fill="#a696c3"/><path d="M374 468H408L401 490H374Z" fill="#a696c3"/></g>
<g id="arm-left" data-mai-name="Brazo izquierdo"><path d="M275 400C243 416 235 450 245 473C252 486 270 486 279 471C287 449 293 426 286 410Z" fill="#b3a1ce"/><ellipse cx="254" cy="473" rx="20" ry="18" fill="#ecd0a2"/></g><g id="arm-right" data-mai-name="Brazo que saluda"><path d="M422 400C449 414 458 444 451 466C443 482 425 479 418 466L408 413Z" fill="#ac9aca"/><ellipse cx="440" cy="468" rx="20" ry="18" fill="#ecd0a2"/></g>
<g id="head" data-mai-name="Cabeza y expresiones"><g id="ear-left"><path d="M253 305C225 262 215 215 235 212C264 219 294 254 303 284Z" fill="#dcb680"/><path d="M256 280L238 233L279 275Z" fill="#d9989b"/></g><g id="ear-right"><path d="M399 283C416 249 448 215 470 213C491 221 473 265 451 305Z" fill="#dcb680"/><path d="M420 273L466 233L446 282Z" fill="#d9989b"/></g><path id="face" d="M238 319C231 272 279 246 350 246C421 246 470 272 463 322C464 389 421 420 350 420C279 420 234 387 238 319Z" fill="url(#fur)"/><path d="M308 253L321 284L333 252M348 249L350 285L363 251M378 251L378 281L394 256" stroke="#cba477" stroke-width="9" stroke-linecap="round" fill="none"/><path id="eye-left" d="M286 337 C286 299 316 299 316 337 C316 375 286 375 286 337 Z" fill="#363844"/><path id="eye-right" d="M384 337 C384 299 414 299 414 337 C414 375 384 375 384 337 Z" fill="#363844"/><circle id="shine-left" cx="297" cy="321" r="5" fill="#fff8e8"/><circle id="shine-right" cx="395" cy="321" r="5" fill="#fff8e8"/><path id="brow-left" d="M279 296L321 291" stroke="#9e805d" stroke-width="4" stroke-linecap="round" fill="none"/><path id="brow-right" d="M379 291L421 296" stroke="#9e805d" stroke-width="4" stroke-linecap="round" fill="none"/><ellipse id="cheek-left" cx="277" cy="370" rx="22" ry="11" fill="#df9791" opacity="0"/><ellipse id="cheek-right" cx="423" cy="370" rx="22" ry="11" fill="#df9791" opacity="0"/><path d="M337 365Q350 376 363 365Q350 352 337 365" fill="#bd857e"/><path id="mouth" d="M332 390 C340 393 360 393 368 390 C360 397 340 397 332 390 Z" fill="#946f65"/><path d="M261 366L221 359M262 380L223 386M439 366L479 359M438 380L477 386" stroke="#b89a76" stroke-width="2" stroke-linecap="round"/></g>
</g><g id="sprite-neutral" opacity="1"><text x="350" y="626" text-anchor="middle" font-family="system-ui" font-size="18" letter-spacing="2" fill="#676879">01 / SERENO</text></g><g id="sprite-happy" opacity="0"><path d="M520 255C475 220 500 190 520 213C540 190 565 220 520 255Z" fill="#f18a9b"/><path d="M175 285C150 268 162 248 175 263C188 248 200 268 175 285Z" fill="#e5b86c"/><text x="350" y="626" text-anchor="middle" font-family="system-ui" font-size="18" letter-spacing="2" fill="#676879">02 / FELIZ</text></g><g id="sprite-surprised" opacity="0"><path d="M520 207L495 244L514 244L497 275L544 229L523 229Z" fill="#efba64"/><text x="350" y="626" text-anchor="middle" font-family="system-ui" font-size="18" letter-spacing="2" fill="#676879">03 / SORPRENDIDO</text></g><g id="sprite-angry" opacity="0"><path d="M510 242L523 231M530 241L541 254M526 258L514 270" stroke="#d77569" stroke-width="5" stroke-linecap="round" fill="none"/><text x="350" y="626" text-anchor="middle" font-family="system-ui" font-size="18" letter-spacing="2" fill="#676879">04 / ENOJADO</text></g><g id="sprite-sad" opacity="0"><path d="M205 234C187 218 166 225 161 241C137 243 137 269 158 271H218C240 268 236 243 218 243C218 237 211 233 205 234Z" fill="#aec3d6"/><path d="M166 290L160 302M191 290L185 302M216 290L210 302" stroke="#82a8c6" stroke-width="4" stroke-linecap="round"/><text x="350" y="626" text-anchor="middle" font-family="system-ui" font-size="18" letter-spacing="2" fill="#676879">05 / TRISTE</text></g><g id="sprite-sleepy" opacity="0"><text x="510" y="270" fill="#8f92ba" font-size="35" font-weight="600">z</text><text x="541" y="233" fill="#b6b6d2" font-size="25">z</text><text x="350" y="626" text-anchor="middle" font-family="system-ui" font-size="18" letter-spacing="2" fill="#676879">06 / DORMIDO</text></g><text x="350" y="663" text-anchor="middle" font-family="system-ui" font-size="12" letter-spacing="1" fill="#96948e">VECTOR MORPH / SPRITE STATES / TAIL RIG / FOLLOW THROUGH</text></svg>